<?xml version="1.0" standalone="no"?>
<!DOCTYPE svg PUBLIC "-//W3C//DTD SVG 20010904//EN"
 "http://www.w3.org/TR/2001/REC-SVG-20010904/DTD/svg10.dtd">
<svg version="1.0" xmlns="http://www.w3.org/2000/svg"
 width="317.000000pt" height="317.000000pt" viewBox="0 0 317.000000 317.000000"
 preserveAspectRatio="xMidYMid meet">
<metadata>
Created by potrace 1.14, written by Peter Selinger 2001-2017
</metadata>
<g transform="translate(0.000000,317.000000) scale(0.100000,-0.100000)"
fill="#000000" stroke="none">
<path d="M1783 3160 c-51 -20 -54 -99 -5 -124 51 -26 102 4 102 59 0 49 -51
83 -97 65z"/>
<path d="M2135 3158 c-37 -21 -50 -56 -33 -94 13 -28 55 -44 85 -33 61 23 62
107 1 128 -17 6 -31 11 -32 11 -1 0 -10 -6 -21 -12z"/>
<path d="M1589 2982 c-45 -37 -17 -122 40 -122 34 0 48 10 60 43 26 69 -44
124 -100 79z"/>
<path d="M1765 2975 c-31 -30 -32 -65 -2 -93 40 -37 92 -27 112 22 31 74 -53
128 -110 71z"/>
<path d="M1942 2980 c-45 -42 -15 -120 46 -120 34 0 72 37 72 69 0 29 -43 71
-73 71 -13 0 -33 -9 -45 -20z"/>
<path d="M1608 2798 c-45 -16 -54 -78 -16 -110 28 -25 55 -22 83 7 49 48 -1
126 -67 103z"/>
<path d="M1777 2793 c-31 -16 -43 -52 -28 -82 34 -63 131 -42 131 28 0 50 -56
79 -103 54z"/>
<path d="M1396 2778 c-9 -12 -16 -32 -16 -44 0 -25 43 -64 70 -64 27 0 70 39
70 64 0 40 -27 66 -70 66 -29 0 -43 -6 -54 -22z"/>
<path d="M1597 2619 c-44 -26 -37 -100 12 -117 54 -19 101 30 81 83 -14 37
-59 53 -93 34z"/>
<path d="M697 2442 c-42 -46 -15 -122 43 -122 37 0 70 40 64 78 -9 54 -74 81
-107 44z"/>
<path d="M870 2438 c-59 -63 29 -159 90 -98 41 41 12 120 -45 120 -13 0 -33
-10 -45 -22z"/>
<path d="M1057 2448 c-39 -30 -38 -84 1 -115 37 -30 95 -3 108 49 12 52 -65
99 -109 66z"/>
<path d="M1590 2442 c-28 -23 -30 -75 -4 -103 38 -42 107 -9 107 51 0 60 -57
89 -103 52z"/>
<path d="M1765 2435 c-31 -30 -32 -65 -2 -93 46 -44 117 -14 117 48 0 64 -70
91 -115 45z"/>
<path d="M2119 2442 c-47 -39 -16 -122 46 -122 13 0 33 8 46 18 47 39 16 122
-46 122 -13 0 -33 -8 -46 -18z"/>
<path d="M903 2272 c-29 -4 -53 -38 -53 -73 0 -28 39 -69 65 -69 7 0 24 9 39
21 55 43 17 133 -51 121z"/>
<path d="M1075 2270 c-78 -29 -49 -150 31 -135 11 2 22 4 26 4 4 1 15 15 24
32 13 25 13 36 4 59 -13 32 -55 51 -85 40z"/>
<path d="M1243 2267 c-30 -13 -47 -56 -34 -90 20 -51 78 -58 117 -13 47 54
-17 133 -83 103z"/>
<path d="M1423 2269 c-77 -29 -35 -158 43 -132 39 13 61 53 49 89 -12 33 -60
56 -92 43z"/>
<path d="M1593 2256 c-19 -16 -26 -32 -25 -55 1 -39 14 -57 48 -65 81 -21 112
105 33 133 -25 8 -33 6 -56 -13z"/>
<path d="M1783 2267 c-44 -25 -55 -70 -25 -105 59 -70 160 10 107 85 -17 24
-56 34 -82 20z"/>
<path d="M1963 2269 c-29 -11 -53 -58 -43 -84 20 -52 79 -67 115 -31 27 27 30
42 16 79 -11 29 -57 48 -88 36z"/>
<path d="M2144 2269 c-31 -11 -53 -47 -48 -78 7 -35 24 -51 60 -55 52 -7 87
37 72 91 -9 35 -49 55 -84 42z"/>
<path d="M2322 2269 c-49 -18 -53 -94 -7 -125 61 -40 124 40 80 103 -18 25
-43 33 -73 22z"/>
<path d="M876 2079 c-50 -39 -24 -119 39 -119 59 0 88 76 45 115 -29 27 -54
28 -84 4z"/>
<path d="M1062 2087 c-22 -10 -39 -48 -33 -77 11 -54 85 -68 121 -23 47 60
-16 133 -88 100z"/>
<path d="M1244 2090 c-26 -10 -35 -22 -40 -58 -10 -61 73 -99 118 -54 33 34
24 92 -18 110 -29 14 -31 14 -60 2z"/>
<path d="M1406 2079 c-53 -41 -21 -119 48 -119 63 0 87 69 41 115 -30 30 -54
31 -89 4z"/>
<path d="M1607 2093 c-9 -2 -24 -17 -32 -33 -32 -62 28 -125 88 -93 15 7 28
21 28 31 4 45 -2 68 -22 85 -21 17 -29 18 -62 10z"/>
<path d="M1790 2093 c-22 -8 -50 -45 -49 -68 0 -43 54 -80 96 -64 30 11 53 58
43 85 -9 23 -47 55 -65 53 -5 0 -17 -3 -25 -6z"/>
<path d="M1970 2093 c-55 -20 -68 -87 -25 -121 21 -16 32 -19 56 -12 60 18 77
73 34 115 -24 25 -37 28 -65 18z"/>
<path d="M2134 2090 c-12 -5 -27 -23 -33 -41 -10 -29 -9 -37 7 -59 25 -33 81
-39 106 -11 34 38 26 85 -21 109 -25 14 -30 14 -59 2z"/>
<path d="M2330 2093 c-69 -25 -64 -122 6 -136 61 -11 98 77 51 121 -24 23 -31
24 -57 15z"/>
<path d="M2495 2088 c-28 -16 -35 -28 -35 -65 0 -41 23 -63 65 -63 63 0 85 88
32 125 -25 18 -35 18 -62 3z"/>
<path d="M696 1905 c-41 -42 -18 -107 41 -113 36 -4 74 36 68 70 -10 51 -75
77 -109 43z"/>
<path d="M866 1898 c-33 -46 -4 -108 49 -108 14 0 34 9 45 20 11 11 20 31 20
45 0 57 -83 88 -114 43z"/>
<path d="M1046 1897 c-43 -43 -9 -107 55 -107 28 0 69 39 69 65 0 7 -9 24 -21
39 -26 34 -71 35 -103 3z"/>
<path d="M1226 1905 c-26 -27 -29 -56 -9 -84 40 -53 123 -31 123 34 0 24 -7
39 -22 49 -28 20 -72 20 -92 1z"/>
<path d="M1400 1900 c-41 -41 -10 -110 50 -110 61 0 92 69 48 110 -28 26 -72
26 -98 0z"/>
<path d="M1585 1900 c-37 -41 -9 -110 45 -110 53 0 82 62 49 103 -25 33 -68
36 -94 7z"/>
<path d="M1761 1896 c-51 -54 12 -127 84 -100 26 10 45 56 33 79 -27 51 -81
60 -117 21z"/>
<path d="M1942 1904 c-28 -19 -29 -67 -2 -94 29 -29 74 -26 99 6 26 34 26 54
1 82 -24 26 -66 29 -98 6z"/>
<path d="M2122 1903 c-31 -28 -35 -56 -11 -86 38 -49 122 -24 122 36 0 58 -67
88 -111 50z"/>
<path d="M2300 1900 c-11 -11 -20 -31 -20 -45 0 -14 9 -34 20 -45 41 -41 110
-10 110 49 0 55 -70 81 -110 41z"/>
<path d="M2477 1902 c-25 -27 -22 -78 5 -96 44 -31 93 -12 104 40 11 58 -70
100 -109 56z"/>
<path d="M889 1726 c-52 -26 -47 -106 8 -127 22 -8 32 -6 52 9 66 49 12 154
-60 118z"/>
<path d="M1075 1730 c-26 -10 -40 -28 -48 -59 -7 -29 40 -82 69 -76 10 2 24 4
31 4 14 1 33 33 38 64 7 42 -48 83 -90 67z"/>
<path d="M1251 1728 c-36 -13 -51 -39 -45 -73 7 -37 21 -52 56 -60 37 -9 90
40 81 76 -12 50 -50 73 -92 57z"/>
<path d="M1430 1730 c-55 -14 -65 -93 -15 -126 49 -32 116 20 101 79 -8 32
-51 56 -86 47z"/>
<path d="M1608 1728 c-24 -8 -40 -31 -43 -63 -2 -17 24 -62 39 -68 25 -10 71
9 85 35 30 52 -23 115 -81 96z"/>
<path d="M1783 1725 c-35 -15 -48 -50 -33 -89 26 -68 130 -44 130 29 0 52 -46
81 -97 60z"/>
<path d="M1975 1732 c-76 -16 -72 -122 5 -137 48 -9 86 35 75 86 -7 32 -47 58
-80 51z"/>
<path d="M2143 1729 c-73 -27 -57 -125 22 -134 15 -2 65 28 66 40 0 5 2 18 4
27 4 21 -28 64 -53 70 -10 3 -27 1 -39 -3z"/>
<path d="M2323 1729 c-47 -17 -56 -77 -18 -115 27 -27 54 -26 88 4 50 44 -7
135 -70 111z"/>
<path d="M2505 1730 c-58 -22 -64 -104 -9 -129 56 -25 111 37 83 94 -16 32
-45 46 -74 35z"/>
<path d="M2679 1728 c-55 -18 -60 -97 -8 -123 64 -34 132 43 88 99 -23 29 -45
36 -80 24z"/>
<path d="M1242 1560 c-53 -22 -48 -109 8 -128 80 -28 131 91 54 127 -29 13
-31 13 -62 1z"/>
<path d="M1407 1550 c-41 -33 -36 -90 12 -114 22 -12 32 -12 57 -1 47 19 58
66 27 103 -27 32 -64 37 -96 12z"/>
<path d="M1589 1549 c-53 -53 2 -146 68 -116 42 19 50 99 12 123 -25 15 -61
12 -80 -7z"/>
<path d="M1764 1545 c-29 -29 -31 -64 -4 -93 31 -33 75 -33 103 0 56 66 -38
154 -99 93z"/>
<path d="M1970 1563 c-48 -18 -64 -68 -35 -110 49 -70 158 11 111 82 -9 14
-20 25 -25 25 -5 0 -15 2 -23 4 -7 3 -20 2 -28 -1z"/>
<path d="M2134 1560 c-12 -5 -26 -22 -32 -40 -14 -40 1 -76 38 -89 78 -27 132
87 59 124 -32 17 -36 17 -65 5z"/>
<path d="M2307 1550 c-32 -25 -36 -67 -9 -100 38 -47 112 -14 112 49 -1 58
-57 87 -103 51z"/>
<path d="M2493 1560 c-35 -14 -47 -76 -20 -109 54 -65 151 18 100 87 -21 28
-46 35 -80 22z"/>
<path d="M1052 1383 c-19 -17 -26 -38 -23 -70 2 -24 41 -53 69 -53 36 0 65 31
65 70 0 60 -66 91 -111 53z"/>
<path d="M1225 1375 c-30 -30 -31 -54 -4 -89 33 -43 93 -34 114 18 31 74 -53
128 -110 71z"/>
<path d="M1400 1378 c-41 -44 -10 -118 49 -118 34 0 71 37 71 71 0 35 -35 69
-70 69 -17 0 -38 -9 -50 -22z"/>
<path d="M1589 1382 c-46 -38 -17 -122 42 -122 36 0 69 41 63 78 -11 59 -60
79 -105 44z"/>
<path d="M1761 1374 c-12 -15 -21 -34 -21 -44 0 -28 39 -70 65 -70 38 0 57 11
70 44 32 75 -64 133 -114 70z"/>
<path d="M1940 1380 c-43 -43 -11 -120 49 -120 32 0 71 39 71 70 0 10 -9 29
-21 44 -25 32 -70 35 -99 6z"/>
<path d="M2119 1382 c-47 -39 -16 -122 46 -122 13 0 33 8 46 18 47 39 16 122
-46 122 -13 0 -33 -8 -46 -18z"/>
<path d="M2300 1378 c-59 -63 29 -159 90 -98 41 41 12 120 -45 120 -13 0 -33
-10 -45 -22z"/>
<path d="M2482 1384 c-31 -21 -31 -87 0 -108 32 -23 61 -20 88 9 18 19 21 31
16 56 -11 55 -59 75 -104 43z"/>
<path d="M2662 1383 c-35 -30 -38 -68 -8 -97 30 -31 69 -33 96 -6 44 44 16
120 -45 120 -13 0 -32 -8 -43 -17z"/>
<path d="M1069 1206 c-55 -27 -55 -103 0 -126 59 -24 115 32 91 91 -15 35 -58
52 -91 35z"/>
<path d="M1243 1207 c-31 -13 -47 -56 -34 -90 22 -57 109 -55 129 1 21 60 -38
115 -95 89z"/>
<path d="M1418 1204 c-48 -25 -51 -84 -7 -117 34 -24 77 -13 99 26 32 57 -33
122 -92 91z"/>
<path d="M1603 1207 c-33 -14 -46 -62 -28 -98 9 -16 19 -29 23 -30 4 0 16 -2
26 -4 48 -9 83 42 65 94 -12 35 -53 53 -86 38z"/>
<path d="M1782 1205 c-59 -25 -50 -113 14 -129 58 -15 104 56 70 108 -19 30
-46 37 -84 21z"/>
<path d="M1953 1200 c-50 -30 -49 -82 1 -116 53 -34 118 16 100 78 -13 46 -60
63 -101 38z"/>
<path d="M2155 1212 c-70 -15 -80 -105 -15 -132 64 -27 124 52 79 106 -18 22
-41 31 -64 26z"/>
<path d="M2319 1206 c-51 -25 -47 -103 6 -128 22 -10 30 -8 53 9 66 49 13 155
-59 119z"/>
<path d="M2500 1207 c-35 -17 -50 -53 -39 -87 19 -53 93 -59 119 -10 29 54
-28 123 -80 97z"/>
<path d="M2672 1203 c-20 -10 -32 -24 -36 -45 -12 -58 35 -97 94 -77 16 6 30
12 30 13 0 0 4 16 9 33 8 26 6 37 -10 56 -24 32 -50 38 -87 20z"/>
<path d="M866 1188 c-21 -30 -20 -60 4 -91 23 -29 59 -30 90 -2 25 23 26 76 2
98 -27 25 -78 22 -96 -5z"/>
<path d="M1238 1019 c-65 -37 -29 -130 47 -120 11 1 30 13 42 27 19 21 20 28
11 55 -14 42 -63 60 -100 38z"/>
<path d="M1406 1009 c-51 -40 -24 -109 42 -109 38 0 72 30 72 64 0 27 -42 66
-70 66 -10 0 -29 -9 -44 -21z"/>
<path d="M1592 1013 c-19 -16 -26 -38 -23 -70 2 -21 32 -43 60 -43 38 0 60 20
65 58 3 25 -2 37 -22 52 -31 25 -54 25 -80 3z"/>
<path d="M1766 1009 c-31 -25 -34 -61 -6 -89 43 -43 120 -18 120 39 0 32 -8
44 -37 60 -31 16 -47 14 -77 -10z"/>
<path d="M1955 1018 c-27 -15 -35 -28 -35 -59 0 -57 77 -82 120 -39 27 27 25
56 -5 85 -26 27 -49 31 -80 13z"/>
<path d="M2121 1013 c-59 -51 -5 -137 70 -111 51 18 56 91 9 115 -34 17 -54
16 -79 -4z"/>
<path d="M2306 1009 c-33 -26 -34 -62 -2 -94 40 -40 106 -9 106 50 0 24 -7 37
-25 49 -32 21 -47 20 -79 -5z"/>
<path d="M2496 1021 c-29 -11 -46 -51 -34 -80 12 -32 25 -41 65 -41 22 0 37 7
47 22 22 32 20 55 -9 83 -25 26 -37 29 -69 16z"/>
<path d="M696 844 c-9 -8 -16 -21 -17 -27 0 -7 -2 -20 -4 -29 -5 -26 33 -68
61 -68 37 0 74 42 68 76 -3 16 -12 37 -21 46 -20 22 -66 23 -87 2z"/>
<path d="M870 840 c-27 -27 -26 -74 2 -100 28 -25 62 -26 88 0 41 41 12 120
-45 120 -14 0 -34 -9 -45 -20z"/>
<path d="M1053 845 c-27 -19 -33 -52 -16 -87 26 -55 106 -45 126 16 20 59 -57
109 -110 71z"/>
<path d="M1226 841 c-29 -32 -30 -68 -2 -96 54 -53 127 -12 116 65 -6 47 -81
68 -114 31z"/>
<path d="M1400 840 c-47 -47 -7 -127 59 -116 38 6 60 30 61 67 0 59 -78 91
-120 49z"/>
<path d="M1585 840 c-38 -42 -11 -120 42 -120 37 0 73 42 67 76 -11 61 -72 85
-109 44z"/>
<path d="M1761 834 c-12 -15 -21 -34 -21 -44 0 -30 39 -70 69 -70 37 0 71 34
71 70 0 65 -79 94 -119 44z"/>
<path d="M1952 853 c-7 -3 -19 -17 -27 -32 -12 -24 -12 -31 1 -57 18 -35 31
-44 65 -44 55 0 87 91 44 125 -20 14 -58 18 -83 8z"/>
<path d="M2118 843 c-35 -42 -28 -94 16 -114 52 -24 108 21 98 78 -7 47 -84
71 -114 36z"/>
<path d="M2299 839 c-17 -17 -20 -29 -15 -58 10 -61 66 -82 106 -39 60 65 -28
160 -91 97z"/>
<path d="M2478 843 c-24 -28 -27 -47 -13 -81 31 -72 140 -33 121 43 -13 52
-76 74 -108 38z"/>
<path d="M415 710 c-26 -29 -24 -79 4 -102 48 -38 111 -10 113 51 2 62 -77 96
-117 51z"/>
<path d="M719 668 c-44 -15 -60 -82 -27 -114 50 -49 126 2 107 72 -10 37 -44
55 -80 42z"/>
<path d="M893 669 c-43 -16 -58 -83 -24 -113 28 -25 57 -27 86 -5 58 47 8 144
-62 118z"/>
<path d="M1080 673 c-31 -11 -50 -37 -50 -67 0 -39 9 -52 43 -65 58 -22 111
31 88 87 -10 23 -51 56 -64 51 -1 0 -9 -3 -17 -6z"/>
<path d="M1249 668 c-36 -12 -55 -58 -38 -90 24 -47 67 -57 105 -25 60 52 9
140 -67 115z"/>
<path d="M1433 672 c-27 -4 -53 -38 -53 -68 0 -60 84 -91 122 -44 44 54 2 123
-69 112z"/>
<path d="M1604 668 c-75 -34 -26 -157 50 -128 27 10 35 20 41 51 10 51 -45 97
-91 77z"/>
<path d="M1777 663 c-31 -16 -42 -48 -28 -85 17 -46 65 -59 105 -27 67 53 -1
152 -77 112z"/>
<path d="M1965 670 c-53 -20 -64 -80 -21 -116 31 -27 72 -24 99 7 19 24 21 37
8 72 -11 28 -57 48 -86 37z"/>
<path d="M2139 668 c-35 -12 -51 -49 -38 -87 10 -29 24 -39 65 -47 24 -4 63
28 65 54 5 63 -36 99 -92 80z"/>
<path d="M2322 669 c-48 -18 -54 -94 -8 -124 18 -12 29 -13 52 -5 35 14 44 26
44 66 0 47 -45 79 -88 63z"/>
<path d="M2499 666 c-34 -16 -49 -52 -38 -86 27 -77 139 -45 125 36 -9 50 -46
71 -87 50z"/>
<path d="M530 493 c-44 -17 -55 -91 -18 -117 24 -17 65 -21 84 -8 15 10 34 47
34 67 0 9 -11 27 -25 40 -24 24 -45 29 -75 18z"/>
<path d="M701 483 c-34 -29 -33 -92 3 -115 35 -24 94 5 100 49 5 28 -20 70
-46 77 -32 8 -33 8 -57 -11z"/>
<path d="M870 478 c-44 -41 -11 -118 50 -118 40 0 65 37 56 83 -10 53 -66 72
-106 35z"/>
<path d="M1051 479 c-27 -25 -28 -80 -3 -102 23 -21 70 -21 97 -2 24 19 26 79
2 102 -24 24 -71 25 -96 2z"/>
<path d="M1242 490 c-27 -11 -43 -49 -35 -81 18 -69 126 -64 133 6 4 34 1 44
-22 65 -24 22 -40 24 -76 10z"/>
<path d="M1406 479 c-50 -40 -21 -119 44 -119 64 0 91 70 45 115 -30 30 -54
31 -89 4z"/>
<path d="M1590 482 c-28 -23 -30 -75 -4 -103 17 -19 59 -25 80 -11 37 24 37
92 1 117 -28 20 -50 19 -77 -3z"/>
<path d="M1765 475 c-47 -46 -17 -115 50 -115 39 0 65 28 65 70 0 31 -8 44
-37 59 -33 17 -51 14 -78 -14z"/>
<path d="M866 298 c-33 -46 -4 -108 49 -108 55 0 87 77 47 113 -27 25 -78 22
-96 -5z"/>
<path d="M1047 302 c-25 -27 -22 -78 5 -96 32 -23 65 -20 94 10 29 28 27 67
-4 91 -25 18 -76 16 -95 -5z"/>
<path d="M1221 299 c-54 -58 28 -138 96 -94 29 19 32 74 5 98 -26 24 -77 21
-101 -4z"/>
<path d="M875 119 c-34 -28 -34 -71 1 -98 33 -26 45 -26 78 0 31 24 35 68 7
93 -28 25 -57 27 -86 5z"/>
<path d="M1064 128 c-51 -24 -47 -98 7 -117 39 -13 76 1 89 34 13 34 13 36 -8
62 -20 26 -58 35 -88 21z"/>
</g>
</svg>
