<svg width="601" height="145" viewBox="0 0 601 145" fill="none" xmlns="http://www.w3.org/2000/svg">
<path d="M34.9262 18.9784L47.6725 68.3158L57.5524 18.9784H62.9817L50.6144 76.3117H45.1078L32.0598 25.769L19.0136 76.3117H13.507L1.13791 18.9784H6.5672L16.4489 68.3158L29.1933 18.9784H34.9262Z" fill="white"/>
<path d="M101.08 48.4754H76.0421V70.8051H103.72V75.5566H70.9127V18.9779H103.72V23.7313H76.0421V43.722H101.08V48.4754Z" fill="white"/>
<path d="M142.495 23.731V75.5583H137.365V23.731H121.752V18.9776H158.106V23.731H142.495Z" fill="white"/>
<path d="M200.047 75.5574V48.4762H171.839V75.5574H166.712V18.9787H171.839V43.7228H200.047V18.9787H205.175V75.5574H200.047Z" fill="white"/>
<path d="M246.663 48.4754H221.625V70.8051H249.304V75.5566H216.496V18.9779H249.304V23.7313H221.625V43.722H246.663V48.4754Z" fill="white"/>
<rect x="269" y="10" width="318" height="77" fill="white"/>
<path d="M564.234 22.9767C569.814 22.9767 573.888 23.7312 579.017 25.9193V20.864C575.923 19.4324 571.248 18.2233 564.31 18.2233C548.473 18.2233 545.303 27.4283 545.303 33.9906C545.303 43.6465 550.432 46.7399 563.782 48.3999C573.209 49.6071 576.528 51.1915 576.528 59.2629C576.528 66.0516 572.983 71.5595 561.217 71.5595C553.372 71.5595 548.923 69.5978 545.303 68.3906V73.2949C548.848 74.8794 555.939 76.311 561.142 76.311C577.959 76.311 582.033 66.957 582.033 59.2629C582.033 48.1735 575.17 45.4573 564.083 44.0237C555.182 42.8938 550.507 42.1393 550.507 34.0661C550.507 28.1073 553.072 22.9767 564.234 22.9767ZM535.566 75.5565V18.9778H530.437L530.587 65.0707L500.194 18.9778H496.347V75.5565H501.476L501.325 29.4636L531.721 75.5565H535.566ZM483.519 43.7238H458.479V23.7312H486.159V18.9778H453.35V75.5565H486.159V70.805H458.479V48.4753H483.519V43.7238ZM444.673 75.5565V70.805L411.337 70.9559L443.542 22.4485V18.9778H406.208V23.7312L436.903 23.5803L404.699 72.0877V75.5565H444.673ZM394.514 18.9778H389.235V75.5565H394.514V18.9778ZM379.124 23.7312V18.9778H342.769V23.7312H358.381V75.5565H363.511V23.7312H379.124ZM332.659 18.9778H327.38V75.5565H332.659V18.9778ZM278.728 47.2681C278.728 63.3354 284.082 76.311 300.977 76.311C307.915 76.311 312.592 75.0303 315.683 73.6703V68.6169C310.48 70.7296 306.633 71.5595 300.977 71.5595C288.608 71.5595 284.157 60.9228 284.157 47.2681C284.157 33.6134 288.608 22.9767 300.977 22.9767C306.633 22.9767 310.48 23.8066 315.683 25.9193V20.864C312.592 19.5078 307.915 18.2233 300.977 18.2233C284.082 18.2233 278.728 31.1989 278.728 47.2681ZM600.065 70.8295C600.065 84.1598 587.649 94.9644 572.34 94.9644C572.34 94.9644 541.716 93.7289 532.89 94.9644C524.072 96.2056 503.377 129.027 503.377 129.027C503.377 129.027 484.717 94.9644 475.893 94.9644H287.942C272.625 94.9644 260.215 84.1598 260.215 70.8295V24.4932C260.215 11.1611 272.625 0.356491 287.942 0.356491H572.34C587.649 0.356491 600.065 11.1611 600.065 24.4932V70.8295Z" fill="#28AAE1"/>
<path d="M5.92434 119.68C5.35105 124.395 8.04023 124.835 13.1489 125.495C19.4929 126.332 23.3267 127.921 22.5328 134.398C21.9595 138.893 18.9214 144.356 9.0963 144.356C6.05635 144.356 2.04708 143.518 0.0650787 142.594L0.417728 139.729C2.4431 140.434 4.91165 141.579 9.49232 141.579C16.3662 141.579 18.8328 138.363 19.3175 134.398C19.8889 129.682 18.0841 128.758 12.6643 128.051C4.95502 127.083 2.17909 125.276 2.88439 119.636C3.36904 115.801 5.88096 110.425 15.1309 110.425C19.1855 110.425 21.8294 111.131 23.5455 111.968L23.1495 114.92C20.3302 113.642 17.9955 113.202 14.7349 113.202C8.21562 113.202 6.36373 116.197 5.92434 119.68Z" fill="#F4F4F4"/>
<path d="M32.0053 127.92H39.4958C45.7077 127.92 47.3804 123.953 47.7783 120.781C48.1743 117.608 47.469 113.643 41.2571 113.643H33.7685L32.0053 127.92ZM30.0667 143.916H27.072L31.1246 110.866H41.2138C49.451 110.866 51.6537 115.625 51.037 120.781C50.4204 125.938 46.9844 130.697 38.7471 130.697H31.6526L30.0667 143.916Z" fill="#F4F4F4"/>
<path d="M72.6261 128.096H57.9997L56.3684 141.139H72.5375L72.2301 143.916H53.0645L57.119 110.867H76.2827L75.9301 113.641H59.761L58.3071 125.319H72.9354L72.6261 128.096Z" fill="#F4F4F4"/>
<path d="M84.6979 132.062H95.6677L92.2317 115.45L84.6979 132.062ZM75.9759 143.915L91.7471 110.426H93.9497L101.527 143.915H98.1344L96.1958 134.661H83.5079L79.3667 143.915H75.9759Z" fill="#F4F4F4"/>
<path d="M113.731 127.92L110.471 131.225L108.93 143.916H105.933L109.988 110.866H112.983L110.955 127.347L126.772 110.866H130.649L115.934 125.674L127.916 143.916H123.996L113.731 127.92Z" fill="#F4F4F4"/>
<path d="M161.092 133.075L163.823 110.866H166.82L164 133.56C162.855 142.946 154.969 144.355 151.003 144.355C147.039 144.355 139.505 142.946 140.65 133.56L143.469 110.866H146.466L143.733 133.075C142.766 141.007 148.404 141.58 151.356 141.58C154.307 141.58 160.123 141.007 161.092 133.075Z" fill="#F4F4F4"/>
<path d="M174.09 127.92H181.58C187.792 127.92 189.465 123.953 189.863 120.781C190.259 117.608 189.553 113.643 183.341 113.643H175.853L174.09 127.92ZM172.151 143.916H169.156L173.209 110.866H183.298C191.535 110.866 193.738 115.625 193.121 120.781C192.505 125.938 189.069 130.697 180.831 130.697H173.737L172.151 143.916Z" fill="#F4F4F4"/>
<path d="M221.759 128.096H207.574L205.635 143.916H202.639L206.693 110.867H225.416L225.063 113.641H209.335L207.881 125.319H222.068L221.759 128.096Z" fill="#F4F4F4"/>
<path d="M249.735 127.391C250.705 119.46 250.263 113.203 242.29 113.203C234.317 113.203 232.376 119.46 231.409 127.391C230.394 135.323 230.836 141.58 238.811 141.58C246.784 141.58 248.721 135.323 249.735 127.391ZM228.237 127.391C229.293 118.754 231.848 110.426 242.643 110.426C253.435 110.426 253.965 118.754 252.907 127.391C251.806 136.029 249.251 144.356 238.458 144.356C227.664 144.356 227.136 136.029 228.237 127.391Z" fill="#F4F4F4"/>
<path d="M261.94 126.686H270.09C275.95 126.686 277.183 123.69 277.622 120.163C278.064 116.64 277.536 113.642 271.676 113.642H263.526L261.94 126.686ZM259.824 143.915H256.829L260.882 110.866H271.235C279.474 110.866 281.588 114.48 280.883 120.163C280.312 124.571 278.416 127.744 273.702 128.932L279.782 143.915H276.302L270.662 129.417C270.179 129.462 269.692 129.462 269.208 129.462H261.587L259.824 143.915Z" fill="#F4F4F4"/>
<path d="M292.56 143.915L296.612 110.866H299.697L295.643 143.915H292.56Z" fill="#F4F4F4"/>
<path d="M308.244 126.686H316.394C322.254 126.686 323.487 123.69 323.928 120.163C324.368 116.64 323.84 113.642 317.98 113.642H309.83L308.244 126.686ZM306.128 143.915H303.133L307.186 110.866H317.539C325.776 110.866 327.892 114.48 327.187 120.163C326.615 124.571 324.72 127.744 320.008 128.932L326.086 143.915H322.606L316.966 129.417C316.483 129.462 315.998 129.462 315.514 129.462H307.891L306.128 143.915Z" fill="#F4F4F4"/>
<path d="M350.053 128.096H335.427L333.797 141.139H349.965L349.657 143.916H330.492L334.544 110.867H353.708L353.357 113.641H337.19L335.734 125.319H350.361L350.053 128.096Z" fill="#F4F4F4"/>
<path d="M358.91 141.14H374.196L373.887 143.916H355.604L359.656 110.867H362.653L358.91 141.14Z" fill="#F4F4F4"/>
<path d="M385.475 132.062H396.443L393.009 115.45L385.475 132.062ZM376.751 143.915L392.522 110.426H394.727L402.304 143.915H398.912L396.975 134.661H384.285L380.144 143.915H376.751Z" fill="#F4F4F4"/>
<path d="M427.372 143.915L412.921 116.991L409.706 143.915H406.709L410.762 110.866H413.01L427.461 137.791L430.676 110.866H433.673L429.618 143.915H427.372Z" fill="#F4F4F4"/>
<path d="M439.534 141.14H445.703C453.633 141.14 456.98 135.322 457.993 127.391C458.962 119.459 457.023 113.642 449.093 113.642H442.927L439.534 141.14ZM436.228 143.916L440.281 110.867H449.269C460.063 110.867 462.309 118.005 461.165 127.391C459.975 136.777 456.009 143.916 445.218 143.916H436.228Z" fill="#F4F4F4"/>
</svg>
